<?xml version="1.0" encoding="UTF-8" standalone="no"?>
<!DOCTYPE svg PUBLIC "-//W3C//DTD SVG 1.1//EN"
 "http://www.w3.org/Graphics/SVG/1.1/DTD/svg11.dtd">
<!-- Generated by graphviz version 2.43.0 (0)
 -->
<!-- Title: Backup_Flow Pages: 1 -->
<svg width="708pt" height="89pt"
 viewBox="0.00 0.00 708.00 89.00" xmlns="http://www.w3.org/2000/svg" xmlns:xlink="http://www.w3.org/1999/xlink">
<g id="graph0" class="graph" transform="scale(1 1) rotate(0) translate(4 85)">
<title>Backup_Flow</title>
<polygon fill="white" stroke="transparent" points="-4,4 -4,-85 704,-85 704,4 -4,4"/>
<text text-anchor="middle" x="350" y="-62.6" font-family="Times,serif" font-size="18.00">Backup Flow: Velero &#45;&gt; MinIO &#45;&gt; NFS</text>
<!-- wp -->
<g id="node1" class="node">
<title>wp</title>
<path fill="none" stroke="black" d="M81,-37C81,-37 12,-37 12,-37 6,-37 0,-31 0,-25 0,-25 0,-13 0,-13 0,-7 6,-1 12,-1 12,-1 81,-1 81,-1 87,-1 93,-7 93,-13 93,-13 93,-25 93,-25 93,-31 87,-37 81,-37"/>
<text text-anchor="middle" x="46.5" y="-16.5" font-family="Times,serif" font-size="10.00">WordPress Pod</text>
</g>
<!-- velero -->
<g id="node2" class="node">
<title>velero</title>
<path fill="none" stroke="black" d="M290,-37C290,-37 212,-37 212,-37 206,-37 200,-31 200,-25 200,-25 200,-13 200,-13 200,-7 206,-1 212,-1 212,-1 290,-1 290,-1 296,-1 302,-7 302,-13 302,-13 302,-25 302,-25 302,-31 296,-37 290,-37"/>
<text text-anchor="middle" x="251" y="-16.5" font-family="Times,serif" font-size="10.00">Velero Controller</text>
</g>
<!-- wp&#45;&gt;velero -->
<g id="edge1" class="edge">
<title>wp&#45;&gt;velero</title>
<path fill="none" stroke="black" d="M93.16,-19C93.16,-19 189.88,-19 189.88,-19"/>
<polygon fill="black" stroke="black" points="189.88,-22.5 199.88,-19 189.88,-15.5 189.88,-22.5"/>
<text text-anchor="middle" x="146.5" y="-22.8" font-family="Times,serif" font-size="14.00">1. Backup</text>
</g>
<!-- minio -->
<g id="node3" class="node">
<title>minio</title>
<path fill="none" stroke="black" d="M467,-37C467,-37 426,-37 426,-37 420,-37 414,-31 414,-25 414,-25 414,-13 414,-13 414,-7 420,-1 426,-1 426,-1 467,-1 467,-1 473,-1 479,-7 479,-13 479,-13 479,-25 479,-25 479,-31 473,-37 467,-37"/>
<text text-anchor="middle" x="446.5" y="-22" font-family="Times,serif" font-size="10.00">MinIO S3</text>
<text text-anchor="middle" x="446.5" y="-11" font-family="Times,serif" font-size="10.00">PVC 10Gi</text>
</g>
<!-- velero&#45;&gt;minio -->
<g id="edge2" class="edge">
<title>velero&#45;&gt;minio</title>
<path fill="none" stroke="black" d="M302.11,-19C302.11,-19 403.77,-19 403.77,-19"/>
<polygon fill="black" stroke="black" points="403.77,-22.5 413.77,-19 403.77,-15.5 403.77,-22.5"/>
<text text-anchor="middle" x="358" y="-22.8" font-family="Times,serif" font-size="14.00">2. Save S3</text>
</g>
<!-- nfs -->
<g id="node4" class="node">
<title>nfs</title>
<path fill="none" stroke="black" d="M688,-37C688,-37 636,-37 636,-37 630,-37 624,-31 624,-25 624,-25 624,-13 624,-13 624,-7 630,-1 636,-1 636,-1 688,-1 688,-1 694,-1 700,-7 700,-13 700,-13 700,-25 700,-25 700,-31 694,-37 688,-37"/>
<text text-anchor="middle" x="662" y="-22" font-family="Times,serif" font-size="10.00">NFS Server</text>
<text text-anchor="middle" x="662" y="-11" font-family="Times,serif" font-size="10.00">skhome01</text>
</g>
<!-- minio&#45;&gt;nfs -->
<g id="edge3" class="edge">
<title>minio&#45;&gt;nfs</title>
<path fill="none" stroke="black" stroke-width="2" d="M479.23,-13C479.23,-13 613.86,-13 613.86,-13"/>
<polygon fill="black" stroke="black" stroke-width="2" points="613.86,-16.5 623.86,-13 613.86,-9.5 613.86,-16.5"/>
<text text-anchor="middle" x="551.5" y="-41.8" font-family="Times,serif" font-size="14.00">3. Copy to NFS</text>
</g>
<!-- nfs&#45;&gt;minio -->
<g id="edge4" class="edge">
<title>nfs&#45;&gt;minio</title>
<path fill="none" stroke="black" stroke-dasharray="5,2" d="M623.97,-25C623.97,-25 489.22,-25 489.22,-25"/>
<polygon fill="black" stroke="black" points="489.22,-21.5 479.22,-25 489.22,-28.5 489.22,-21.5"/>
<text text-anchor="middle" x="551.5" y="-3.8" font-family="Times,serif" font-size="14.00">4. Restore</text>
</g>
</g>
</svg>
