<?xml version="1.0" encoding="UTF-8" standalone="no"?>
<!DOCTYPE svg PUBLIC "-//W3C//DTD SVG 1.1//EN"
 "http://www.w3.org/Graphics/SVG/1.1/DTD/svg11.dtd">
<!-- Generated by graphviz version 2.43.0 (0)
 -->
<!-- Title: Calico_Network Pages: 1 -->
<svg width="285pt" height="396pt"
 viewBox="0.00 0.00 285.00 396.25" xmlns="http://www.w3.org/2000/svg" xmlns:xlink="http://www.w3.org/1999/xlink">
<g id="graph0" class="graph" transform="scale(1 1) rotate(0) translate(4 392.25)">
<title>Calico_Network</title>
<polygon fill="white" stroke="transparent" points="-4,4 -4,-392.25 281,-392.25 281,4 -4,4"/>
<text text-anchor="middle" x="138.5" y="-369.85" font-family="Times,serif" font-size="18.00">Calico CNI: IP&#45;in&#45;IP туннели</text>
<g id="clust1" class="cluster">
<title>cluster_phys</title>
<polygon fill="#ffffe0" stroke="black" points="32,-272.25 32,-352.25 266,-352.25 266,-272.25 32,-272.25"/>
<text text-anchor="middle" x="149" y="-333.85" font-family="Times,serif" font-size="18.00">Physical 192.168.0.0/24</text>
</g>
<g id="clust2" class="cluster">
<title>cluster_overlay</title>
<polygon fill="#e0ffff" stroke="black" points="11,-8 11,-253.25 230,-253.25 230,-8 11,-8"/>
<text text-anchor="middle" x="120.5" y="-234.85" font-family="Times,serif" font-size="18.00">Overlay 10.244.0.0/16</text>
</g>
<!-- n1 -->
<g id="node1" class="node">
<title>n1</title>
<path fill="none" stroke="black" d="M92,-316.25C92,-316.25 58,-316.25 58,-316.25 52,-316.25 46,-310.25 46,-304.25 46,-304.25 46,-292.25 46,-292.25 46,-286.25 52,-280.25 58,-280.25 58,-280.25 92,-280.25 92,-280.25 98,-280.25 104,-286.25 104,-292.25 104,-292.25 104,-304.25 104,-304.25 104,-310.25 98,-316.25 92,-316.25"/>
<text text-anchor="middle" x="75" y="-301.25" font-family="Times,serif" font-size="10.00">master1</text>
<text text-anchor="middle" x="75" y="-290.25" font-family="Times,serif" font-size="10.00">.132</text>
</g>
<!-- tunnel -->
<g id="node4" class="node">
<title>tunnel</title>
<path fill="none" stroke="black" d="M196.5,-213.6C196.5,-215.68 175.21,-217.38 149,-217.38 122.79,-217.38 101.5,-215.68 101.5,-213.6 101.5,-213.6 101.5,-179.65 101.5,-179.65 101.5,-177.57 122.79,-175.87 149,-175.87 175.21,-175.87 196.5,-177.57 196.5,-179.65 196.5,-179.65 196.5,-213.6 196.5,-213.6"/>
<path fill="none" stroke="black" d="M196.5,-213.6C196.5,-211.52 175.21,-209.83 149,-209.83 122.79,-209.83 101.5,-211.52 101.5,-213.6"/>
<text text-anchor="middle" x="149" y="-199.62" font-family="Times,serif" font-size="10.00">IP&#45;in&#45;IP tunnels</text>
<text text-anchor="middle" x="149" y="-188.62" font-family="Times,serif" font-size="10.00">MTU 1440</text>
</g>
<!-- n1&#45;&gt;tunnel -->
<g id="edge1" class="edge">
<title>n1&#45;&gt;tunnel</title>
<path fill="none" stroke="black" d="M104.19,-298C109.29,-298 113,-298 113,-298 113,-298 113,-226.65 113,-226.65"/>
<polygon fill="black" stroke="black" points="116.5,-226.65 113,-216.65 109.5,-226.65 116.5,-226.65"/>
</g>
<!-- n2 -->
<g id="node2" class="node">
<title>n2</title>
<path fill="none" stroke="black" d="M164,-316.25C164,-316.25 134,-316.25 134,-316.25 128,-316.25 122,-310.25 122,-304.25 122,-304.25 122,-292.25 122,-292.25 122,-286.25 128,-280.25 134,-280.25 134,-280.25 164,-280.25 164,-280.25 170,-280.25 176,-286.25 176,-292.25 176,-292.25 176,-304.25 176,-304.25 176,-310.25 170,-316.25 164,-316.25"/>
<text text-anchor="middle" x="149" y="-301.25" font-family="Times,serif" font-size="10.00">worker</text>
<text text-anchor="middle" x="149" y="-290.25" font-family="Times,serif" font-size="10.00">.137</text>
</g>
<!-- n2&#45;&gt;tunnel -->
<g id="edge2" class="edge">
<title>n2&#45;&gt;tunnel</title>
<path fill="none" stroke="black" d="M149,-280.08C149,-280.08 149,-227.44 149,-227.44"/>
<polygon fill="black" stroke="black" points="152.5,-227.44 149,-217.44 145.5,-227.44 152.5,-227.44"/>
</g>
<!-- n3 -->
<g id="node3" class="node">
<title>n3</title>
<path fill="none" stroke="black" d="M240,-316.25C240,-316.25 206,-316.25 206,-316.25 200,-316.25 194,-310.25 194,-304.25 194,-304.25 194,-292.25 194,-292.25 194,-286.25 200,-280.25 206,-280.25 206,-280.25 240,-280.25 240,-280.25 246,-280.25 252,-286.25 252,-292.25 252,-292.25 252,-304.25 252,-304.25 252,-310.25 246,-316.25 240,-316.25"/>
<text text-anchor="middle" x="223" y="-301.25" font-family="Times,serif" font-size="10.00">worker2</text>
<text text-anchor="middle" x="223" y="-290.25" font-family="Times,serif" font-size="10.00">.135</text>
</g>
<!-- n3&#45;&gt;tunnel -->
<g id="edge3" class="edge">
<title>n3&#45;&gt;tunnel</title>
<path fill="none" stroke="black" d="M193.81,-298C188.71,-298 185,-298 185,-298 185,-298 185,-226.65 185,-226.65"/>
<polygon fill="black" stroke="black" points="188.5,-226.65 185,-216.65 181.5,-226.65 188.5,-226.65"/>
</g>
<!-- pod1 -->
<g id="node5" class="node">
<title>pod1</title>
<path fill="none" stroke="black" d="M112,-139C112,-139 62,-139 62,-139 56,-139 50,-133 50,-127 50,-127 50,-115 50,-115 50,-109 56,-103 62,-103 62,-103 112,-103 112,-103 118,-103 124,-109 124,-115 124,-115 124,-127 124,-127 124,-133 118,-139 112,-139"/>
<text text-anchor="middle" x="87" y="-124" font-family="Times,serif" font-size="10.00">Pod A</text>
<text text-anchor="middle" x="87" y="-113" font-family="Times,serif" font-size="10.00">10.244.1.10</text>
</g>
<!-- tunnel&#45;&gt;pod1 -->
<g id="edge4" class="edge">
<title>tunnel&#45;&gt;pod1</title>
<path fill="none" stroke="black" d="M112.75,-176.36C112.75,-176.36 112.75,-149.25 112.75,-149.25"/>
<polygon fill="black" stroke="black" points="116.25,-149.25 112.75,-139.25 109.25,-149.25 116.25,-149.25"/>
</g>
<!-- pod2 -->
<g id="node6" class="node">
<title>pod2</title>
<path fill="none" stroke="black" d="M147,-52C147,-52 85,-52 85,-52 79,-52 73,-46 73,-40 73,-40 73,-28 73,-28 73,-22 79,-16 85,-16 85,-16 147,-16 147,-16 153,-16 159,-22 159,-28 159,-28 159,-40 159,-40 159,-46 153,-52 147,-52"/>
<text text-anchor="middle" x="116" y="-37" font-family="Times,serif" font-size="10.00">Pod B</text>
<text text-anchor="middle" x="116" y="-26" font-family="Times,serif" font-size="10.00">10.244.254.20</text>
</g>
<!-- tunnel&#45;&gt;pod2 -->
<g id="edge5" class="edge">
<title>tunnel&#45;&gt;pod2</title>
<path fill="none" stroke="black" d="M141.5,-175.7C141.5,-175.7 141.5,-62.34 141.5,-62.34"/>
<polygon fill="black" stroke="black" points="145,-62.34 141.5,-52.34 138,-62.34 145,-62.34"/>
</g>
<!-- pod1&#45;&gt;pod2 -->
<g id="edge6" class="edge">
<title>pod1&#45;&gt;pod2</title>
<path fill="none" stroke="#cc6600" d="M98.5,-102.97C98.5,-102.97 98.5,-62 98.5,-62"/>
<polygon fill="#cc6600" stroke="#cc6600" points="102,-62 98.5,-52 95,-62 102,-62"/>
<text text-anchor="middle" x="102" y="-73.8" font-family="Times,serif" font-size="14.00">routed via tunnel</text>
</g>
</g>
</svg>
