<?xml version="1.0" encoding="UTF-8" standalone="no"?>
<!DOCTYPE svg PUBLIC "-//W3C//DTD SVG 1.1//EN"
 "http://www.w3.org/Graphics/SVG/1.1/DTD/svg11.dtd">
<!-- Generated by graphviz version 2.43.0 (0)
 -->
<!-- Title: Calico_CNI Pages: 1 -->
<svg width="418pt" height="746pt"
 viewBox="0.00 0.00 418.00 746.00" xmlns="http://www.w3.org/2000/svg" xmlns:xlink="http://www.w3.org/1999/xlink">
<g id="graph0" class="graph" transform="scale(1 1) rotate(0) translate(4 742)">
<title>Calico_CNI</title>
<polygon fill="white" stroke="transparent" points="-4,4 -4,-742 414,-742 414,4 -4,4"/>
<text text-anchor="middle" x="205" y="-718" font-family="Arial" font-size="20.00">Calico CNI — Межузловая маршрутизация</text>
<g id="clust1" class="cluster">
<title>cluster_node1</title>
<polygon fill="#e8f0fe" stroke="black" points="114.5,-448 114.5,-700 283.5,-700 283.5,-448 114.5,-448"/>
<text text-anchor="middle" x="199" y="-686.4" font-family="Arial" font-size="12.00">k8s&#45;worker2 (192.168.0.135)</text>
</g>
<g id="clust2" class="cluster">
<title>cluster_network</title>
<polygon fill="#fff3e0" stroke="black" points="117.5,-315 117.5,-393 308.5,-393 308.5,-315 117.5,-315"/>
<text text-anchor="middle" x="213" y="-379.4" font-family="Arial" font-size="12.00">Физическая сеть 192.168.0.0/24</text>
</g>
<g id="clust3" class="cluster">
<title>cluster_node2</title>
<polygon fill="#e8f0fe" stroke="black" points="101.5,-8 101.5,-260 270.5,-260 270.5,-8 101.5,-8"/>
<text text-anchor="middle" x="186" y="-246.4" font-family="Arial" font-size="12.00">k8s&#45;worker3 (192.168.0.136)</text>
</g>
<!-- pod_a -->
<g id="node1" class="node">
<title>pod_a</title>
<path fill="none" stroke="black" d="M210,-671C210,-671 161,-671 161,-671 155,-671 149,-665 149,-659 149,-659 149,-642 149,-642 149,-636 155,-630 161,-630 161,-630 210,-630 210,-630 216,-630 222,-636 222,-642 222,-642 222,-659 222,-659 222,-665 216,-671 210,-671"/>
<text text-anchor="middle" x="185.5" y="-659" font-family="Arial" font-size="10.00">Velero Pod</text>
<text text-anchor="middle" x="185.5" y="-648" font-family="Arial" font-size="10.00">10.244.126.5</text>
<text text-anchor="middle" x="185.5" y="-637" font-family="Arial" font-size="10.00">caliXXXX</text>
</g>
<!-- cni0_a -->
<g id="node2" class="node">
<title>cni0_a</title>
<path fill="none" stroke="black" d="M208.5,-579C208.5,-579 162.5,-579 162.5,-579 156.5,-579 150.5,-573 150.5,-567 150.5,-567 150.5,-555 150.5,-555 150.5,-549 156.5,-543 162.5,-543 162.5,-543 208.5,-543 208.5,-543 214.5,-543 220.5,-549 220.5,-555 220.5,-555 220.5,-567 220.5,-567 220.5,-573 214.5,-579 208.5,-579"/>
<text text-anchor="middle" x="185.5" y="-564" font-family="Arial" font-size="10.00">cni0 (bridge)</text>
<text text-anchor="middle" x="185.5" y="-553" font-family="Arial" font-size="10.00">10.244.4.1</text>
</g>
<!-- pod_a&#45;&gt;cni0_a -->
<g id="edge1" class="edge">
<title>pod_a&#45;&gt;cni0_a</title>
<path fill="none" stroke="black" d="M185.5,-629.74C185.5,-629.74 185.5,-589.22 185.5,-589.22"/>
<polygon fill="black" stroke="black" points="189,-589.22 185.5,-579.22 182,-589.22 189,-589.22"/>
</g>
<!-- tunl0_a -->
<g id="node3" class="node">
<title>tunl0_a</title>
<path fill="none" stroke="black" d="M236,-492C236,-492 135,-492 135,-492 129,-492 123,-486 123,-480 123,-480 123,-468 123,-468 123,-462 129,-456 135,-456 135,-456 236,-456 236,-456 242,-456 248,-462 248,-468 248,-468 248,-480 248,-480 248,-486 242,-492 236,-492"/>
<text text-anchor="middle" x="185.5" y="-477" font-family="Arial" font-size="10.00">tunl0 (IPIP)</text>
<text text-anchor="middle" x="185.5" y="-466" font-family="Arial" font-size="10.00">Туннельный интерфейс</text>
</g>
<!-- cni0_a&#45;&gt;tunl0_a -->
<g id="edge2" class="edge">
<title>cni0_a&#45;&gt;tunl0_a</title>
<path fill="none" stroke="black" d="M185.5,-542.97C185.5,-542.97 185.5,-502 185.5,-502"/>
<polygon fill="black" stroke="black" points="189,-502 185.5,-492 182,-502 189,-502"/>
</g>
<!-- eth -->
<g id="node4" class="node">
<title>eth</title>
<path fill="none" stroke="black" d="M218,-364C218,-364 153,-364 153,-364 147,-364 141,-358 141,-352 141,-352 141,-335 141,-335 141,-329 147,-323 153,-323 153,-323 218,-323 218,-323 224,-323 230,-329 230,-335 230,-335 230,-352 230,-352 230,-358 224,-364 218,-364"/>
<text text-anchor="middle" x="185.5" y="-352" font-family="Arial" font-size="10.00">Ethernet</text>
<text text-anchor="middle" x="185.5" y="-341" font-family="Arial" font-size="10.00">BGP&#45;маршруты</text>
<text text-anchor="middle" x="185.5" y="-330" font-family="Arial" font-size="10.00">IPIP&#45;туннели</text>
</g>
<!-- tunl0_a&#45;&gt;eth -->
<g id="edge5" class="edge">
<title>tunl0_a&#45;&gt;eth</title>
<path fill="none" stroke="#fb8c00" stroke-width="2" d="M185.5,-455.85C185.5,-455.85 185.5,-374.07 185.5,-374.07"/>
<polygon fill="#fb8c00" stroke="#fb8c00" stroke-width="2" points="189,-374.07 185.5,-364.07 182,-374.07 189,-374.07"/>
<text text-anchor="middle" x="243.5" y="-419.8" font-family="Times,serif" font-size="14.00">IPIP&#45;туннель</text>
<text text-anchor="middle" x="243.5" y="-404.8" font-family="Times,serif" font-size="14.00">(инкапсуляция)</text>
</g>
<!-- tunl0_b -->
<g id="node5" class="node">
<title>tunl0_b</title>
<path fill="none" stroke="black" d="M236,-231C236,-231 135,-231 135,-231 129,-231 123,-225 123,-219 123,-219 123,-207 123,-207 123,-201 129,-195 135,-195 135,-195 236,-195 236,-195 242,-195 248,-201 248,-207 248,-207 248,-219 248,-219 248,-225 242,-231 236,-231"/>
<text text-anchor="middle" x="185.5" y="-216" font-family="Arial" font-size="10.00">tunl0 (IPIP)</text>
<text text-anchor="middle" x="185.5" y="-205" font-family="Arial" font-size="10.00">Туннельный интерфейс</text>
</g>
<!-- eth&#45;&gt;tunl0_b -->
<g id="edge6" class="edge">
<title>eth&#45;&gt;tunl0_b</title>
<path fill="none" stroke="#fb8c00" stroke-width="2" d="M185.5,-322.82C185.5,-322.82 185.5,-241.06 185.5,-241.06"/>
<polygon fill="#fb8c00" stroke="#fb8c00" stroke-width="2" points="189,-241.06 185.5,-231.06 182,-241.06 189,-241.06"/>
<text text-anchor="middle" x="243" y="-286.8" font-family="Times,serif" font-size="14.00">IPIP&#45;туннель</text>
<text text-anchor="middle" x="243" y="-271.8" font-family="Times,serif" font-size="14.00">(декапсуляция)</text>
</g>
<!-- cni0_b -->
<g id="node6" class="node">
<title>cni0_b</title>
<path fill="none" stroke="black" d="M208.5,-144C208.5,-144 162.5,-144 162.5,-144 156.5,-144 150.5,-138 150.5,-132 150.5,-132 150.5,-120 150.5,-120 150.5,-114 156.5,-108 162.5,-108 162.5,-108 208.5,-108 208.5,-108 214.5,-108 220.5,-114 220.5,-120 220.5,-120 220.5,-132 220.5,-132 220.5,-138 214.5,-144 208.5,-144"/>
<text text-anchor="middle" x="185.5" y="-129" font-family="Arial" font-size="10.00">cni0 (bridge)</text>
<text text-anchor="middle" x="185.5" y="-118" font-family="Arial" font-size="10.00">10.244.5.1</text>
</g>
<!-- tunl0_b&#45;&gt;cni0_b -->
<g id="edge3" class="edge">
<title>tunl0_b&#45;&gt;cni0_b</title>
<path fill="none" stroke="black" d="M185.5,-194.97C185.5,-194.97 185.5,-154 185.5,-154"/>
<polygon fill="black" stroke="black" points="189,-154 185.5,-144 182,-154 189,-154"/>
</g>
<!-- pod_b -->
<g id="node7" class="node">
<title>pod_b</title>
<path fill="none" stroke="black" d="M215,-57C215,-57 156,-57 156,-57 150,-57 144,-51 144,-45 144,-45 144,-28 144,-28 144,-22 150,-16 156,-16 156,-16 215,-16 215,-16 221,-16 227,-22 227,-28 227,-28 227,-45 227,-45 227,-51 221,-57 215,-57"/>
<text text-anchor="middle" x="185.5" y="-45" font-family="Arial" font-size="10.00">MinIO Pod</text>
<text text-anchor="middle" x="185.5" y="-34" font-family="Arial" font-size="10.00">10.244.100.195</text>
<text text-anchor="middle" x="185.5" y="-23" font-family="Arial" font-size="10.00">caliYYYY</text>
</g>
<!-- cni0_b&#45;&gt;pod_b -->
<g id="edge4" class="edge">
<title>cni0_b&#45;&gt;pod_b</title>
<path fill="none" stroke="black" d="M185.5,-107.89C185.5,-107.89 185.5,-67.09 185.5,-67.09"/>
<polygon fill="black" stroke="black" points="189,-67.09 185.5,-57.09 182,-67.09 189,-67.09"/>
</g>
</g>
</svg>
