<?xml version="1.0" encoding="UTF-8" standalone="no"?>
<!DOCTYPE svg PUBLIC "-//W3C//DTD SVG 1.1//EN"
 "http://www.w3.org/Graphics/SVG/1.1/DTD/svg11.dtd">
<!-- Generated by graphviz version 2.43.0 (0)
 -->
<!-- Title: CoreDNS Pages: 1 -->
<svg width="437pt" height="570pt"
 viewBox="0.00 0.00 437.00 570.00" xmlns="http://www.w3.org/2000/svg" xmlns:xlink="http://www.w3.org/1999/xlink">
<g id="graph0" class="graph" transform="scale(1 1) rotate(0) translate(4 566)">
<title>CoreDNS</title>
<polygon fill="white" stroke="transparent" points="-4,4 -4,-566 433,-566 433,4 -4,4"/>
<text text-anchor="middle" x="214.5" y="-542" font-family="Arial" font-size="20.00">CoreDNS — Service Discovery в K8s</text>
<!-- pod -->
<g id="node1" class="node">
<title>pod</title>
<path fill="none" stroke="black" d="M205,-532C205,-532 109,-532 109,-532 103,-532 97,-526 97,-520 97,-520 97,-492 97,-492 97,-486 103,-480 109,-480 109,-480 205,-480 205,-480 211,-480 217,-486 217,-492 217,-492 217,-520 217,-520 217,-526 211,-532 205,-532"/>
<text text-anchor="middle" x="157" y="-520" font-family="Arial" font-size="10.00">Pod (любой)</text>
<text text-anchor="middle" x="157" y="-509" font-family="Arial" font-size="10.00">/etc/resolv.conf</text>
<text text-anchor="middle" x="157" y="-498" font-family="Arial" font-size="10.00">nameserver 10.96.0.10</text>
<text text-anchor="middle" x="157" y="-487" font-family="Arial" font-size="10.00">search svc.cluster.local</text>
</g>
<!-- kube_proxy -->
<g id="node2" class="node">
<title>kube_proxy</title>
<path fill="none" stroke="black" d="M120,-400C120,-400 12,-400 12,-400 6,-400 0,-394 0,-388 0,-388 0,-371 0,-371 0,-365 6,-359 12,-359 12,-359 120,-359 120,-359 126,-359 132,-365 132,-371 132,-371 132,-388 132,-388 132,-394 126,-400 120,-400"/>
<text text-anchor="middle" x="66" y="-388" font-family="Arial" font-size="10.00">kube&#45;proxy (iptables)</text>
<text text-anchor="middle" x="66" y="-377" font-family="Arial" font-size="10.00">Правила DNAT</text>
<text text-anchor="middle" x="66" y="-366" font-family="Arial" font-size="10.00">10.96.0.10:53 → PodIP:53</text>
</g>
<!-- pod&#45;&gt;kube_proxy -->
<g id="edge1" class="edge">
<title>pod&#45;&gt;kube_proxy</title>
<path fill="none" stroke="#4285f4" stroke-width="2" d="M114.5,-479.79C114.5,-479.79 114.5,-410.25 114.5,-410.25"/>
<polygon fill="#4285f4" stroke="#4285f4" stroke-width="2" points="118,-410.25 114.5,-400.25 111,-410.25 118,-410.25"/>
<text text-anchor="middle" x="139.5" y="-443.8" font-family="Times,serif" font-size="14.00">DNS&#45;запрос</text>
<text text-anchor="middle" x="139.5" y="-428.8" font-family="Times,serif" font-size="14.00">kubernetes.default.svc</text>
</g>
<!-- coredns_pod1 -->
<g id="node3" class="node">
<title>coredns_pod1</title>
<path fill="none" stroke="black" d="M278.5,-308C278.5,-308 189.5,-308 189.5,-308 183.5,-308 177.5,-302 177.5,-296 177.5,-296 177.5,-257 177.5,-257 177.5,-251 183.5,-245 189.5,-245 189.5,-245 278.5,-245 278.5,-245 284.5,-245 290.5,-251 290.5,-257 290.5,-257 290.5,-296 290.5,-296 290.5,-302 284.5,-308 278.5,-308"/>
<text text-anchor="middle" x="234" y="-296" font-family="Arial" font-size="10.00">CoreDNS Pod 1</text>
<text text-anchor="middle" x="234" y="-285" font-family="Arial" font-size="10.00">10.244.4.105</text>
<text text-anchor="middle" x="234" y="-274" font-family="Arial" font-size="10.00">Плагин: kubernetes</text>
<text text-anchor="middle" x="234" y="-263" font-family="Arial" font-size="10.00">Запрашивает Service</text>
<text text-anchor="middle" x="234" y="-252" font-family="Arial" font-size="10.00">записи у API Server</text>
</g>
<!-- kube_proxy&#45;&gt;coredns_pod1 -->
<g id="edge2" class="edge">
<title>kube_proxy&#45;&gt;coredns_pod1</title>
<path fill="none" stroke="#34a853" d="M132.35,-379C162.12,-379 190.67,-379 190.67,-379 190.67,-379 190.67,-318.09 190.67,-318.09"/>
<polygon fill="#34a853" stroke="#34a853" points="194.17,-318.09 190.67,-308.09 187.17,-318.09 194.17,-318.09"/>
</g>
<!-- coredns_pod2 -->
<g id="node4" class="node">
<title>coredns_pod2</title>
<path fill="none" stroke="black" d="M203.5,-63C203.5,-63 114.5,-63 114.5,-63 108.5,-63 102.5,-57 102.5,-51 102.5,-51 102.5,-12 102.5,-12 102.5,-6 108.5,0 114.5,0 114.5,0 203.5,0 203.5,0 209.5,0 215.5,-6 215.5,-12 215.5,-12 215.5,-51 215.5,-51 215.5,-57 209.5,-63 203.5,-63"/>
<text text-anchor="middle" x="159" y="-51" font-family="Arial" font-size="10.00">CoreDNS Pod 2</text>
<text text-anchor="middle" x="159" y="-40" font-family="Arial" font-size="10.00">10.244.3.170</text>
<text text-anchor="middle" x="159" y="-29" font-family="Arial" font-size="10.00">Плагин: kubernetes</text>
<text text-anchor="middle" x="159" y="-18" font-family="Arial" font-size="10.00">Запрашивает Service</text>
<text text-anchor="middle" x="159" y="-7" font-family="Arial" font-size="10.00">записи у API Server</text>
</g>
<!-- kube_proxy&#45;&gt;coredns_pod2 -->
<g id="edge3" class="edge">
<title>kube_proxy&#45;&gt;coredns_pod2</title>
<path fill="none" stroke="#34a853" d="M117.25,-358.77C117.25,-358.77 117.25,-73.23 117.25,-73.23"/>
<polygon fill="#34a853" stroke="#34a853" points="120.75,-73.23 117.25,-63.23 113.75,-73.23 120.75,-73.23"/>
</g>
<!-- coredns_pod1&#45;&gt;pod -->
<g id="edge8" class="edge">
<title>coredns_pod1&#45;&gt;pod</title>
<path fill="none" stroke="#34a853" stroke-width="2" stroke-dasharray="5,2" d="M203.83,-308.41C203.83,-308.41 203.83,-469.69 203.83,-469.69"/>
<polygon fill="#34a853" stroke="#34a853" stroke-width="2" points="200.33,-469.69 203.83,-479.69 207.33,-469.69 200.33,-469.69"/>
<text text-anchor="middle" x="290" y="-375.8" font-family="Times,serif" font-size="14.00">10.96.0.1</text>
</g>
<!-- api -->
<g id="node5" class="node">
<title>api</title>
<path fill="none" stroke="black" d="M287.5,-180C287.5,-180 228.5,-180 228.5,-180 222.5,-180 216.5,-174 216.5,-168 216.5,-168 216.5,-140 216.5,-140 216.5,-134 222.5,-128 228.5,-128 228.5,-128 287.5,-128 287.5,-128 293.5,-128 299.5,-134 299.5,-140 299.5,-140 299.5,-168 299.5,-168 299.5,-174 293.5,-180 287.5,-180"/>
<text text-anchor="middle" x="258" y="-168" font-family="Arial" font-size="10.00">API Server</text>
<text text-anchor="middle" x="258" y="-157" font-family="Arial" font-size="10.00">10.96.0.1:443</text>
<text text-anchor="middle" x="258" y="-146" font-family="Arial" font-size="10.00">Хранит все</text>
<text text-anchor="middle" x="258" y="-135" font-family="Arial" font-size="10.00">Service&#45;записи</text>
</g>
<!-- coredns_pod1&#45;&gt;api -->
<g id="edge4" class="edge">
<title>coredns_pod1&#45;&gt;api</title>
<path fill="none" stroke="#ea4335" stroke-width="2" d="M241.17,-244.95C241.17,-244.95 241.17,-190.07 241.17,-190.07"/>
<polygon fill="#ea4335" stroke="#ea4335" stroke-width="2" points="244.67,-190.07 241.17,-180.07 237.67,-190.07 244.67,-190.07"/>
<text text-anchor="middle" x="374.5" y="-208.8" font-family="Times,serif" font-size="14.00">watch Services</text>
</g>
<!-- coredns_pod2&#45;&gt;api -->
<g id="edge5" class="edge">
<title>coredns_pod2&#45;&gt;api</title>
<path fill="none" stroke="#ea4335" stroke-width="2" d="M190.17,-63.09C190.17,-101.71 190.17,-162 190.17,-162 190.17,-162 206.2,-162 206.2,-162"/>
<polygon fill="#ea4335" stroke="#ea4335" stroke-width="2" points="206.2,-165.5 216.2,-162 206.2,-158.5 206.2,-165.5"/>
<text text-anchor="middle" x="213.5" y="-91.8" font-family="Times,serif" font-size="14.00">watch Services</text>
</g>
<!-- api&#45;&gt;coredns_pod1 -->
<g id="edge6" class="edge">
<title>api&#45;&gt;coredns_pod1</title>
<path fill="none" stroke="#ea4335" stroke-dasharray="5,2" d="M265.83,-180.28C265.83,-180.28 265.83,-234.61 265.83,-234.61"/>
<polygon fill="#ea4335" stroke="#ea4335" points="262.33,-234.61 265.83,-244.61 269.33,-234.61 262.33,-234.61"/>
<text text-anchor="middle" x="217" y="-208.8" font-family="Times,serif" font-size="14.00">Service IPs</text>
</g>
<!-- api&#45;&gt;coredns_pod2 -->
<g id="edge7" class="edge">
<title>api&#45;&gt;coredns_pod2</title>
<path fill="none" stroke="#ea4335" stroke-dasharray="5,2" d="M216.47,-145C208.63,-145 202.83,-145 202.83,-145 202.83,-145 202.83,-73.12 202.83,-73.12"/>
<polygon fill="#ea4335" stroke="#ea4335" points="206.33,-73.12 202.83,-63.12 199.33,-73.12 206.33,-73.12"/>
<text text-anchor="middle" x="371" y="-91.8" font-family="Times,serif" font-size="14.00">Service IPs</text>
</g>
</g>
</svg>
