<?xml version="1.0" encoding="UTF-8" standalone="no"?>
<!DOCTYPE svg PUBLIC "-//W3C//DTD SVG 1.1//EN"
 "http://www.w3.org/Graphics/SVG/1.1/DTD/svg11.dtd">
<!-- Generated by graphviz version 2.43.0 (0)
 -->
<!-- Title: K8s_Cluster Pages: 1 -->
<svg width="1259pt" height="548pt"
 viewBox="0.00 0.00 1259.00 548.00" xmlns="http://www.w3.org/2000/svg" xmlns:xlink="http://www.w3.org/1999/xlink">
<g id="graph0" class="graph" transform="scale(1 1) rotate(0) translate(4 544)">
<title>K8s_Cluster</title>
<polygon fill="white" stroke="transparent" points="-4,4 -4,-544 1255,-544 1255,4 -4,4"/>
<text text-anchor="middle" x="625.5" y="-523.2" font-family="Arial" font-size="16.00">Архитектура Kubernetes кластера (3 master + 3 worker)</text>
<g id="clust1" class="cluster">
<title>cluster_proxmox</title>
<polygon fill="#e8f0fe" stroke="#4285f4" stroke-width="2" points="8,-8 8,-400 719,-400 719,-8 8,-8"/>
<text text-anchor="middle" x="363.5" y="-386.4" font-family="Arial" font-size="12.00">Proxmox VE 9.2 (192.168.0.200)</text>
</g>
<g id="clust2" class="cluster">
<title>cluster_masters</title>
<polygon fill="#ffe0e0" stroke="#cc0000" stroke-width="2" points="16,-16 16,-371 261,-371 261,-16 16,-16"/>
<text text-anchor="middle" x="138.5" y="-358.2" font-family="Arial" font-size="11.00">Control Plane (Master Nodes)</text>
</g>
<g id="clust3" class="cluster">
<title>cluster_workers</title>
<polygon fill="#e0ffe0" stroke="#00aa00" stroke-width="2" points="269,-135 269,-234 711,-234 711,-135 269,-135"/>
<text text-anchor="middle" x="490" y="-221.2" font-family="Arial" font-size="11.00">Worker Nodes</text>
</g>
<g id="clust6" class="cluster">
<title>cluster_legend</title>
<polygon fill="#fafafa" stroke="#999999" points="1113,-419 1113,-506 1243,-506 1243,-419 1113,-419"/>
<text text-anchor="middle" x="1178" y="-494.8" font-family="Arial" font-size="9.00">Порты</text>
</g>
<g id="clust4" class="cluster">
<title>cluster_network</title>
<polygon fill="#ffffe0" stroke="#aaaa00" stroke-width="2" points="727,-279.5 727,-500.5 873,-500.5 873,-279.5 727,-279.5"/>
<text text-anchor="middle" x="800" y="-487.7" font-family="Arial" font-size="11.00">Сетевая инфраструктура</text>
</g>
<g id="clust5" class="cluster">
<title>cluster_addons</title>
<polygon fill="#f0f0f0" stroke="#666666" stroke-width="2" points="881,-421.5 881,-505.5 1105,-505.5 1105,-421.5 881,-421.5"/>
<text text-anchor="middle" x="993" y="-492.7" font-family="Arial" font-size="11.00">Дополнительные компоненты</text>
</g>
<!-- master1 -->
<g id="node1" class="node">
<title>master1</title>
<path fill="#ffffff" stroke="black" d="M241,-343C241,-343 121,-343 121,-343 115,-343 109,-337 109,-331 109,-331 109,-292 109,-292 109,-286 115,-280 121,-280 121,-280 241,-280 241,-280 247,-280 253,-286 253,-292 253,-292 253,-331 253,-331 253,-337 247,-343 241,-343"/>
<text text-anchor="middle" x="181" y="-331" font-family="Arial" font-size="10.00">k8s&#45;master1</text>
<text text-anchor="middle" x="181" y="-320" font-family="Arial" font-size="10.00">192.168.0.126</text>
<text text-anchor="middle" x="181" y="-309" font-family="Arial" font-size="10.00">etcd + API Server</text>
<text text-anchor="middle" x="181" y="-298" font-family="Arial" font-size="10.00">Scheduler</text>
<text text-anchor="middle" x="181" y="-287" font-family="Arial" font-size="10.00">Controller Manager</text>
</g>
<!-- master2 -->
<g id="node2" class="node">
<title>master2</title>
<path fill="#ffffff" stroke="black" d="M156,-206C156,-206 36,-206 36,-206 30,-206 24,-200 24,-194 24,-194 24,-155 24,-155 24,-149 30,-143 36,-143 36,-143 156,-143 156,-143 162,-143 168,-149 168,-155 168,-155 168,-194 168,-194 168,-200 162,-206 156,-206"/>
<text text-anchor="middle" x="96" y="-194" font-family="Arial" font-size="10.00">k8s&#45;master2</text>
<text text-anchor="middle" x="96" y="-183" font-family="Arial" font-size="10.00">192.168.0.127</text>
<text text-anchor="middle" x="96" y="-172" font-family="Arial" font-size="10.00">etcd + API Server</text>
<text text-anchor="middle" x="96" y="-161" font-family="Arial" font-size="10.00">Scheduler</text>
<text text-anchor="middle" x="96" y="-150" font-family="Arial" font-size="10.00">Controller Manager</text>
</g>
<!-- master1&#45;&gt;master2 -->
<g id="edge1" class="edge">
<title>master1&#45;&gt;master2</title>
<path fill="none" stroke="#cc0000" stroke-width="1.5" d="M138.5,-269.73C138.5,-269.73 138.5,-216.1 138.5,-216.1"/>
<polygon fill="#cc0000" stroke="#cc0000" stroke-width="1.5" points="142,-216.1 138.5,-206.1 135,-216.1 142,-216.1"/>
<polygon fill="#cc0000" stroke="#cc0000" stroke-width="1.5" points="135,-269.73 138.5,-279.73 142,-269.73 135,-269.73"/>
<text text-anchor="middle" x="146.5" y="-254.8" font-family="Arial" font-size="9.00">etcd Raft</text>
<text text-anchor="middle" x="146.5" y="-244.8" font-family="Arial" font-size="9.00">(консенсус)</text>
</g>
<!-- worker1 -->
<g id="node4" class="node">
<title>worker1</title>
<path fill="#ffffff" stroke="black" d="M691,-206C691,-206 585,-206 585,-206 579,-206 573,-200 573,-194 573,-194 573,-155 573,-155 573,-149 579,-143 585,-143 585,-143 691,-143 691,-143 697,-143 703,-149 703,-155 703,-155 703,-194 703,-194 703,-200 697,-206 691,-206"/>
<text text-anchor="middle" x="638" y="-194" font-family="Arial" font-size="10.00">k8s&#45;worker1</text>
<text text-anchor="middle" x="638" y="-183" font-family="Arial" font-size="10.00">192.168.0.129</text>
<text text-anchor="middle" x="638" y="-172" font-family="Arial" font-size="10.00">kubelet + kube&#45;proxy</text>
<text text-anchor="middle" x="638" y="-161" font-family="Arial" font-size="10.00">Container Runtime</text>
<text text-anchor="middle" x="638" y="-150" font-family="Arial" font-size="10.00">(containerd)</text>
</g>
<!-- master1&#45;&gt;worker1 -->
<g id="edge4" class="edge">
<title>master1&#45;&gt;worker1</title>
<path fill="none" stroke="#4285f4" stroke-width="1.5" d="M253.38,-285C377.16,-285 616.33,-285 616.33,-285 616.33,-285 616.33,-216.16 616.33,-216.16"/>
<polygon fill="#4285f4" stroke="#4285f4" stroke-width="1.5" points="619.83,-216.16 616.33,-206.16 612.83,-216.16 619.83,-216.16"/>
<text text-anchor="middle" x="296.5" y="-254.8" font-family="Arial" font-size="9.00">Управление</text>
<text text-anchor="middle" x="296.5" y="-244.8" font-family="Arial" font-size="9.00">(kubelet API)</text>
</g>
<!-- worker2 -->
<g id="node5" class="node">
<title>worker2</title>
<path fill="#ffffff" stroke="black" d="M395,-206C395,-206 289,-206 289,-206 283,-206 277,-200 277,-194 277,-194 277,-155 277,-155 277,-149 283,-143 289,-143 289,-143 395,-143 395,-143 401,-143 407,-149 407,-155 407,-155 407,-194 407,-194 407,-200 401,-206 395,-206"/>
<text text-anchor="middle" x="342" y="-194" font-family="Arial" font-size="10.00">k8s&#45;worker2</text>
<text text-anchor="middle" x="342" y="-183" font-family="Arial" font-size="10.00">192.168.0.130</text>
<text text-anchor="middle" x="342" y="-172" font-family="Arial" font-size="10.00">kubelet + kube&#45;proxy</text>
<text text-anchor="middle" x="342" y="-161" font-family="Arial" font-size="10.00">Container Runtime</text>
<text text-anchor="middle" x="342" y="-150" font-family="Arial" font-size="10.00">(containerd)</text>
</g>
<!-- master1&#45;&gt;worker2 -->
<g id="edge5" class="edge">
<title>master1&#45;&gt;worker2</title>
<path fill="none" stroke="#4285f4" stroke-width="1.5" d="M242,-279.95C242,-239.36 242,-174 242,-174 242,-174 266.98,-174 266.98,-174"/>
<polygon fill="#4285f4" stroke="#4285f4" stroke-width="1.5" points="266.98,-177.5 276.98,-174 266.98,-170.5 266.98,-177.5"/>
</g>
<!-- worker3 -->
<g id="node6" class="node">
<title>worker3</title>
<path fill="#ffffff" stroke="black" d="M543,-206C543,-206 437,-206 437,-206 431,-206 425,-200 425,-194 425,-194 425,-155 425,-155 425,-149 431,-143 437,-143 437,-143 543,-143 543,-143 549,-143 555,-149 555,-155 555,-155 555,-194 555,-194 555,-200 549,-206 543,-206"/>
<text text-anchor="middle" x="490" y="-194" font-family="Arial" font-size="10.00">k8s&#45;worker3</text>
<text text-anchor="middle" x="490" y="-183" font-family="Arial" font-size="10.00">192.168.0.131</text>
<text text-anchor="middle" x="490" y="-172" font-family="Arial" font-size="10.00">kubelet + kube&#45;proxy</text>
<text text-anchor="middle" x="490" y="-161" font-family="Arial" font-size="10.00">Container Runtime</text>
<text text-anchor="middle" x="490" y="-150" font-family="Arial" font-size="10.00">(containerd)</text>
</g>
<!-- master1&#45;&gt;worker3 -->
<g id="edge6" class="edge">
<title>master1&#45;&gt;worker3</title>
<path fill="none" stroke="#4285f4" stroke-width="1.5" d="M253.14,-282C338.25,-282 468.33,-282 468.33,-282 468.33,-282 468.33,-216.17 468.33,-216.17"/>
<polygon fill="#4285f4" stroke="#4285f4" stroke-width="1.5" points="471.83,-216.17 468.33,-206.17 464.83,-216.17 471.83,-216.17"/>
</g>
<!-- master3 -->
<g id="node3" class="node">
<title>master3</title>
<path fill="#ffffff" stroke="black" d="M219,-87C219,-87 99,-87 99,-87 93,-87 87,-81 87,-75 87,-75 87,-36 87,-36 87,-30 93,-24 99,-24 99,-24 219,-24 219,-24 225,-24 231,-30 231,-36 231,-36 231,-75 231,-75 231,-81 225,-87 219,-87"/>
<text text-anchor="middle" x="159" y="-75" font-family="Arial" font-size="10.00">k8s&#45;master3</text>
<text text-anchor="middle" x="159" y="-64" font-family="Arial" font-size="10.00">192.168.0.128</text>
<text text-anchor="middle" x="159" y="-53" font-family="Arial" font-size="10.00">etcd + API Server</text>
<text text-anchor="middle" x="159" y="-42" font-family="Arial" font-size="10.00">Scheduler</text>
<text text-anchor="middle" x="159" y="-31" font-family="Arial" font-size="10.00">Controller Manager</text>
</g>
<!-- master2&#45;&gt;master3 -->
<g id="edge2" class="edge">
<title>master2&#45;&gt;master3</title>
<path fill="none" stroke="#cc0000" stroke-width="1.5" d="M127.5,-132.92C127.5,-132.92 127.5,-97.22 127.5,-97.22"/>
<polygon fill="#cc0000" stroke="#cc0000" stroke-width="1.5" points="131,-97.22 127.5,-87.22 124,-97.22 131,-97.22"/>
<polygon fill="#cc0000" stroke="#cc0000" stroke-width="1.5" points="124,-132.92 127.5,-142.92 131,-132.92 124,-132.92"/>
<text text-anchor="middle" x="141.5" y="-117.8" font-family="Arial" font-size="9.00">etcd Raft</text>
<text text-anchor="middle" x="141.5" y="-107.8" font-family="Arial" font-size="9.00">(консенсус)</text>
</g>
<!-- master3&#45;&gt;master1 -->
<g id="edge3" class="edge">
<title>master3&#45;&gt;master1</title>
<path fill="none" stroke="#cc0000" stroke-width="1.5" d="M199.5,-97.15C199.5,-97.15 199.5,-269.92 199.5,-269.92"/>
<polygon fill="#cc0000" stroke="#cc0000" stroke-width="1.5" points="196,-269.92 199.5,-279.92 203,-269.92 196,-269.92"/>
<polygon fill="#cc0000" stroke="#cc0000" stroke-width="1.5" points="203,-97.15 199.5,-87.15 196,-97.15 203,-97.15"/>
<text text-anchor="middle" x="228.5" y="-177.3" font-family="Arial" font-size="9.00">etcd Raft</text>
<text text-anchor="middle" x="228.5" y="-167.3" font-family="Arial" font-size="9.00">(консенсус)</text>
</g>
<!-- flannel -->
<g id="node7" class="node">
<title>flannel</title>
<polygon fill="#ffffff" stroke="black" points="865,-335.5 735,-335.5 735,-331.5 731,-331.5 731,-327.5 735,-327.5 735,-295.5 731,-295.5 731,-291.5 735,-291.5 735,-287.5 865,-287.5 865,-335.5"/>
<polyline fill="none" stroke="black" points="735,-331.5 739,-331.5 739,-327.5 735,-327.5 "/>
<polyline fill="none" stroke="black" points="735,-295.5 739,-295.5 739,-291.5 735,-291.5 "/>
<text text-anchor="middle" x="800" y="-324.3" font-family="Arial" font-size="9.00">Flannel CNI</text>
<text text-anchor="middle" x="800" y="-314.3" font-family="Arial" font-size="9.00">Pod Network: 10.244.0.0/16</text>
<text text-anchor="middle" x="800" y="-304.3" font-family="Arial" font-size="9.00">VXLAN Overlay</text>
<text text-anchor="middle" x="800" y="-294.3" font-family="Arial" font-size="9.00">Межподовая связность</text>
</g>
<!-- flannel&#45;&gt;worker1 -->
<g id="edge7" class="edge">
<title>flannel&#45;&gt;worker1</title>
<path fill="none" stroke="#00aa00" stroke-dasharray="5,2" d="M734.76,-299C698.12,-299 659.67,-299 659.67,-299 659.67,-299 659.67,-216.24 659.67,-216.24"/>
<polygon fill="#00aa00" stroke="#00aa00" points="663.17,-216.24 659.67,-206.24 656.17,-216.24 663.17,-216.24"/>
</g>
<!-- flannel&#45;&gt;worker2 -->
<g id="edge8" class="edge">
<title>flannel&#45;&gt;worker2</title>
<path fill="none" stroke="#00aa00" stroke-dasharray="5,2" d="M734.87,-323C608.42,-323 342,-323 342,-323 342,-323 342,-216.36 342,-216.36"/>
<polygon fill="#00aa00" stroke="#00aa00" points="345.5,-216.36 342,-206.36 338.5,-216.36 345.5,-216.36"/>
</g>
<!-- flannel&#45;&gt;worker3 -->
<g id="edge9" class="edge">
<title>flannel&#45;&gt;worker3</title>
<path fill="none" stroke="#00aa00" stroke-dasharray="5,2" d="M734.93,-311C649.89,-311 511.67,-311 511.67,-311 511.67,-311 511.67,-216.16 511.67,-216.16"/>
<polygon fill="#00aa00" stroke="#00aa00" points="515.17,-216.16 511.67,-206.16 508.17,-216.16 515.17,-216.16"/>
</g>
<!-- coredns -->
<g id="node8" class="node">
<title>coredns</title>
<polygon fill="#ffffff" stroke="black" points="845,-472.5 755,-472.5 755,-468.5 751,-468.5 751,-464.5 755,-464.5 755,-442.5 751,-442.5 751,-438.5 755,-438.5 755,-434.5 845,-434.5 845,-472.5"/>
<polyline fill="none" stroke="black" points="755,-468.5 759,-468.5 759,-464.5 755,-464.5 "/>
<polyline fill="none" stroke="black" points="755,-442.5 759,-442.5 759,-438.5 755,-438.5 "/>
<text text-anchor="middle" x="800" y="-461.3" font-family="Arial" font-size="9.00">CoreDNS</text>
<text text-anchor="middle" x="800" y="-451.3" font-family="Arial" font-size="9.00">Service Discovery</text>
<text text-anchor="middle" x="800" y="-441.3" font-family="Arial" font-size="9.00">DNS для подов</text>
</g>
<!-- coredns&#45;&gt;flannel -->
<g id="edge10" class="edge">
<title>coredns&#45;&gt;flannel</title>
<path fill="none" stroke="black" stroke-dasharray="5,2" d="M800,-434.35C800,-434.35 800,-345.56 800,-345.56"/>
<polygon fill="black" stroke="black" points="803.5,-345.56 800,-335.56 796.5,-345.56 803.5,-345.56"/>
</g>
<!-- ingress -->
<g id="node9" class="node">
<title>ingress</title>
<path fill="#ffffff" stroke="black" d="M1085.5,-477.5C1085.5,-477.5 1020.5,-477.5 1020.5,-477.5 1014.5,-477.5 1008.5,-471.5 1008.5,-465.5 1008.5,-465.5 1008.5,-441.5 1008.5,-441.5 1008.5,-435.5 1014.5,-429.5 1020.5,-429.5 1020.5,-429.5 1085.5,-429.5 1085.5,-429.5 1091.5,-429.5 1097.5,-435.5 1097.5,-441.5 1097.5,-441.5 1097.5,-465.5 1097.5,-465.5 1097.5,-471.5 1091.5,-477.5 1085.5,-477.5"/>
<text text-anchor="middle" x="1053" y="-466.3" font-family="Arial" font-size="9.00">Ingress Controller</text>
<text text-anchor="middle" x="1053" y="-456.3" font-family="Arial" font-size="9.00">(Nginx)</text>
<text text-anchor="middle" x="1053" y="-446.3" font-family="Arial" font-size="9.00">Внешний доступ</text>
<text text-anchor="middle" x="1053" y="-436.3" font-family="Arial" font-size="9.00">к сервисам</text>
</g>
<!-- storage -->
<g id="node10" class="node">
<title>storage</title>
<path fill="#ffffff" stroke="black" d="M978.5,-477.5C978.5,-477.5 901.5,-477.5 901.5,-477.5 895.5,-477.5 889.5,-471.5 889.5,-465.5 889.5,-465.5 889.5,-441.5 889.5,-441.5 889.5,-435.5 895.5,-429.5 901.5,-429.5 901.5,-429.5 978.5,-429.5 978.5,-429.5 984.5,-429.5 990.5,-435.5 990.5,-441.5 990.5,-441.5 990.5,-465.5 990.5,-465.5 990.5,-471.5 984.5,-477.5 978.5,-477.5"/>
<text text-anchor="middle" x="940" y="-466.3" font-family="Arial" font-size="9.00">Storage Class</text>
<text text-anchor="middle" x="940" y="-456.3" font-family="Arial" font-size="9.00">(local&#45;path)</text>
<text text-anchor="middle" x="940" y="-446.3" font-family="Arial" font-size="9.00">PV/PVC для</text>
<text text-anchor="middle" x="940" y="-436.3" font-family="Arial" font-size="9.00">постоянных данных</text>
</g>
<!-- ports -->
<g id="node11" class="node">
<title>ports</title>
<polygon fill="#ffffff" stroke="black" points="1228.5,-480 1121.5,-480 1121.5,-427 1234.5,-427 1234.5,-474 1228.5,-480"/>
<polyline fill="none" stroke="black" points="1228.5,-480 1228.5,-474 "/>
<polyline fill="none" stroke="black" points="1234.5,-474 1228.5,-474 "/>
<text text-anchor="middle" x="1178" y="-469.6" font-family="Arial" font-size="8.00">API Server: 6443</text>
<text text-anchor="middle" x="1178" y="-460.6" font-family="Arial" font-size="8.00">etcd: 2379&#45;2380</text>
<text text-anchor="middle" x="1178" y="-451.6" font-family="Arial" font-size="8.00">kubelet: 10250</text>
<text text-anchor="middle" x="1178" y="-442.6" font-family="Arial" font-size="8.00">NodePort: 30000&#45;32767</text>
<text text-anchor="middle" x="1178" y="-433.6" font-family="Arial" font-size="8.00">Flannel VXLAN: 8472/UDP</text>
</g>
</g>
</svg>
